<?xml version="1.0" encoding="UTF-8"?>
<svg version="1.1" xmlns="http://www.w3.org/2000/svg" width="500" height="500">
<path d="M0 0 C165 0 330 0 500 0 C500 165 500 330 500 500 C335 500 170 500 0 500 C0 335 0 170 0 0 Z " fill="#FEFEFE" transform="translate(0,0)"/>
<path d="M0 0 C0.33 0 0.66 0 1 0 C1.01417969 0.60585937 1.02835938 1.21171875 1.04296875 1.8359375 C1.59909113 11.60565507 5.22556641 19.23878344 12.38671875 25.94140625 C17.57443572 30.02799346 23.26336089 33.34420318 28.91748047 36.73876953 C32.20799079 38.73159208 35.44990458 40.7976662 38.6875 42.875 C39.78449219 43.57367188 40.88148438 44.27234375 42.01171875 44.9921875 C46.72880599 48.16157684 50.38447712 51.11448167 53.625 55.8125 C54.19476563 56.62332031 54.76453125 57.43414062 55.3515625 58.26953125 C63.26028487 71.369524 65.06485153 89.48759188 62.125 104.375 C61.568125 106.169375 61.568125 106.169375 61 108 C60.01 108.495 60.01 108.495 59 109 C58.55011719 108.15179688 58.10023438 107.30359375 57.63671875 106.4296875 C50.12584109 92.6006723 40.39237055 81.08693529 29.61083984 69.70361328 C27.32181462 67.28275575 25.05097022 64.84510621 22.77905273 62.40820312 C21.60089371 61.14451561 20.42202925 59.88148539 19.24243164 58.61914062 C13.46701413 52.43850132 7.72974369 46.22296338 2 40 C8.58379457 50.7061705 16.11978371 60.19162175 24.2421875 69.75 C34.47047741 81.79492468 44.54519521 93.88018551 52 107.875 C52.36158203 108.55191895 52.72316406 109.22883789 53.09570312 109.92626953 C57.94965046 119.37396683 60.18290525 128.39149559 60 139 C58.51995972 137.04686767 57.06251404 135.09109715 55.67578125 133.0703125 C55.22589844 132.42835938 54.77601563 131.78640625 54.3125 131.125 C53.87550781 130.48820313 53.43851562 129.85140625 52.98828125 129.1953125 C47.50085303 123.13650177 40.80415596 119.70593644 33.375 116.5625 C31.60087551 115.78150664 29.8274402 114.99894591 28.0546875 114.21484375 C25.67348551 113.1703397 23.29190213 112.1268814 20.90722656 111.09033203 C3.4157298 103.38777831 -7.95623956 90.75130837 -15 73 C-15.32097656 72.2575 -15.64195312 71.515 -15.97265625 70.75 C-22.08422408 54.37668338 -17.24693901 35.60028453 -10.5703125 20.2734375 C-7.27245492 13.39879907 -3.64207864 6.6969812 0 0 Z " fill="#039347" transform="translate(190,174)"/>
<path d="M0 0 C3.53482108 4.00197805 5.57345506 8.01846662 7.625 12.875 C7.9240625 13.55691406 8.223125 14.23882812 8.53125 14.94140625 C14.0401999 27.73874562 15.73774902 42.89141227 10.9375 56.25 C8.36748514 61.82916391 5.19468128 66.52396814 1 71 C0.36578125 71.68707031 -0.2684375 72.37414062 -0.921875 73.08203125 C-6.8070542 78.86764915 -13.67356371 81.94450659 -21.12646484 85.17529297 C-23.99640758 86.43860631 -26.81167901 87.8033877 -29.625 89.1875 C-30.54539062 89.63480469 -31.46578125 90.08210938 -32.4140625 90.54296875 C-36.58628344 92.89378206 -40.00169853 95.291577 -42.1875 99.625 C-44 103 -44 103 -46 105 C-47.62574106 87.52328356 -35.02902235 71.48131931 -24.47949219 58.75439453 C-21.48467596 55.20311575 -18.42233313 51.70981777 -15.3671875 48.21044922 C-10.41656286 42.46674754 -6.16507791 36.33175986 -2 30 C-2.495 30.495 -2.495 30.495 -3 31 C-3.88945312 31.87785156 -4.77890625 32.75570312 -5.6953125 33.66015625 C-13.69431338 41.56663611 -13.69431338 41.56663611 -21.203125 49.93359375 C-23.0522568 52.06009532 -24.99360854 54.08289782 -26.94311523 56.11694336 C-34.24617176 63.80850008 -40.44757218 72.37621476 -45 82 C-48.05063043 77.42405436 -47.36851192 72.88511017 -47.375 67.5 C-47.39949219 66.46101563 -47.42398437 65.42203125 -47.44921875 64.3515625 C-47.48776204 54.0476552 -45.15140871 45.29273545 -37.88671875 37.75390625 C-31.81150103 32.10634361 -24.81915226 27.92663343 -17.72290039 23.68994141 C-8.14051295 17.86646797 -3.12636375 10.65805823 0 0 Z " fill="#88BD44" transform="translate(305,184)"/>
<path d="M0 0 C0.89847656 0.65355469 1.79695312 1.30710938 2.72265625 1.98046875 C21.636195 16.58459361 32.99366782 36.84146092 36.67480469 60.36132812 C39.796832 85.693814 34.41903233 113.73852386 18.5546875 134.25 C16.41566361 136.87851838 14.24399231 139.46087945 12 142 C12 138.02434053 13.52155054 136.30538256 15.625 132.9375 C18.93100996 127.40932121 21.3624503 121.86673653 23.375 115.75 C23.61299316 115.03062256 23.85098633 114.31124512 24.09619141 113.57006836 C27.06642837 104.14861378 28.36731532 95.19276246 28.3125 85.3125 C28.30758545 84.25957764 28.3026709 83.20665527 28.29760742 82.12182617 C27.92503559 57.20154736 17.57012069 34.07617409 0.30078125 16.20703125 C-13.41168885 3.27701308 -29.71874737 -4.94718356 -48 -9 C-48.76634766 -9.1757959 -49.53269531 -9.3515918 -50.32226562 -9.53271484 C-64.28462411 -11.96925333 -81.49173482 -11.44893727 -95 -7 C-96.59521484 -6.48953125 -96.59521484 -6.48953125 -98.22265625 -5.96875 C-111.48278223 -1.29056491 -122.46041965 5.80626988 -133 15 C-134.22648413 16.02405471 -135.45510879 17.0455618 -136.6875 18.0625 C-137.450625 18.701875 -138.21375 19.34125 -139 20 C-132.26154198 4.06241109 -113.17133795 -6.66857055 -98 -13 C-65.76227098 -25.41115341 -27.88944643 -20.31883227 0 0 Z " fill="#78BA55" transform="translate(318,139)"/>
<path d="M0 0 C10.77773135 8.79814804 20.26419119 19.87131056 22.30859375 34.15625 C22.72965968 41.81199412 20.42515501 47.77657483 16 54 C12.91706166 56.8074868 9.57718451 58.87785236 6 61 C0.12601684 64.85346936 -4.75034932 68.37949426 -9 74 C-9.33 74 -9.66 74 -10 74 C-10.63113823 60.65843911 -9.38192393 49.03239525 -3 37 C-8.24296823 44.32997501 -11.86228416 50.89827328 -13 60 C-18.41536022 55.17008413 -21.06150708 50.45189735 -21.5625 43.1875 C-21.12812426 32.8865895 -13.59993404 26.16970517 -6.49536133 19.5534668 C-2.52514552 15.80766207 -0.21692974 12.97193741 0.1953125 7.32421875 C0.17210937 6.45410156 0.14890625 5.58398438 0.125 4.6875 C0.10695313 3.80449219 0.08890625 2.92148438 0.0703125 2.01171875 C0.04710937 1.34785156 0.02390625 0.68398437 0 0 Z " fill="#77B954" transform="translate(256,148)"/>
<path d="M0 0 C1.82144531 -0.00580078 1.82144531 -0.00580078 3.6796875 -0.01171875 C4.85015625 -0.01042969 6.020625 -0.00914063 7.2265625 -0.0078125 C8.81718506 -0.00612061 8.81718506 -0.00612061 10.43994141 -0.00439453 C13.19445072 0.11704033 15.69405845 0.5019425 18.375 1.125 C18.375 1.455 18.375 1.785 18.375 2.125 C17.76205078 2.16463867 17.14910156 2.20427734 16.51757812 2.24511719 C-13.65367559 4.28737482 -40.08621135 12.05751883 -61.625 34.125 C-62.51960938 35.01058594 -63.41421875 35.89617187 -64.3359375 36.80859375 C-84.03810529 57.20791517 -90.84918394 83.05174865 -90.6875 110.6875 C-90.6824746 112.18814955 -90.67791353 113.68880072 -90.67382812 115.18945312 C-90.66290576 118.83466977 -90.64569856 122.47982422 -90.625 126.125 C-99.06740433 113.4613935 -97.21784515 89.75125486 -94.4375 75.5 C-87.73838189 49.54481218 -72.688705 27.05221087 -49.625 13.125 C-33.53290833 3.90928251 -18.50818997 -0.05932112 0 0 Z " fill="#0C974E" transform="translate(244.625,112.875)"/>
<path d="M0 0 C3.31724224 2.76953557 5.03625656 6.4569631 6.9375 10.25 C7.29013916 10.95294189 7.64277832 11.65588379 8.00610352 12.38012695 C11.38507455 19.37312109 13.36547493 26.41838935 15 34 C15.25934326 35.14819214 15.25934326 35.14819214 15.52392578 36.31958008 C19.84156858 60.6290161 14.42212285 86.31648297 0.79492188 106.8125 C-12.46890901 125.74303797 -32.78530445 142.30530838 -56 147 C-58.328125 146.58984375 -58.328125 146.58984375 -60 146 C-59.33355469 145.70867187 -58.66710937 145.41734375 -57.98046875 145.1171875 C-29.44163622 132.42439205 -8.74858798 113.15760002 3 84 C9.99862347 65.46197949 11.65456935 43.34636644 7 24 C6.54560547 22.09734375 6.54560547 22.09734375 6.08203125 20.15625 C4.25722988 12.7660629 4.25722988 12.7660629 1.37109375 5.7421875 C0 3 0 3 0 0 Z " fill="#92C847" transform="translate(326,171)"/>
<path d="M0 0 C0.66 0.33 1.32 0.66 2 1 C0.92781239 2.63237552 -0.15821244 4.25566803 -1.25 5.875 C-2.15492188 7.23238281 -2.15492188 7.23238281 -3.078125 8.6171875 C-5.01414906 11.01754253 -6.21735332 11.83308365 -9 13 C-10.68889872 14.3050581 -12.3603279 15.63360658 -14 17 C-12.40069566 12.95864413 -9.51339591 10.32092848 -6.4375 7.375 C-2.77285984 4.03597098 -2.77285984 4.03597098 0 0 Z " fill="#ECF5E2" transform="translate(302,213)"/>
<path d="M0 0 C0.66 0.33 1.32 0.66 2 1 C-0.36509726 4.36092769 -3.06331348 7.13005636 -6 10 C-7.27215505 11.26951024 -8.54294969 12.54038494 -9.8125 13.8125 C-10.875 14.875 -11.9375 15.9375 -13 17 C-13 13.55262494 -12.66974196 13.27721902 -10.41015625 10.8984375 C-9.87326172 10.32609375 -9.33636719 9.75375 -8.78320312 9.1640625 C-8.21537109 8.57367188 -7.64753906 7.98328125 -7.0625 7.375 C-6.49853516 6.776875 -5.93457031 6.17875 -5.35351562 5.5625 C-1.79225128 1.79225128 -1.79225128 1.79225128 0 0 Z " fill="#86C166" transform="translate(193,142)"/>
<path d="M0 0 C0.33 0.66 0.66 1.32 1 2 C0.07421875 3.98828125 0.07421875 3.98828125 -1.3125 6.3125 C-2.81140038 8.8738078 -4.05005349 11.13838318 -5.0625 13.9375 C-6 16 -6 16 -8.125 17.3125 C-9.053125 17.6528125 -9.053125 17.6528125 -10 18 C-8.6948802 13.5730861 -6.9640877 10.04331547 -4.4375 6.1875 C-3.81746094 5.23230469 -3.19742188 4.27710938 -2.55859375 3.29296875 C-1 1 -1 1 0 0 Z " fill="#E8F3E2" transform="translate(254,182)"/>
<path d="M0 0 C0.33 0.99 0.66 1.98 1 3 C-0.87109375 5.69921875 -0.87109375 5.69921875 -3.4375 8.6875 C-4.28183594 9.68136719 -5.12617188 10.67523438 -5.99609375 11.69921875 C-6.98802734 12.83810547 -6.98802734 12.83810547 -8 14 C-8 10.37346766 -6.99610743 8.94576483 -5.125 5.875 C-4.59132813 4.98554688 -4.05765625 4.09609375 -3.5078125 3.1796875 C-2 1 -2 1 0 0 Z " fill="#86C167" transform="translate(338,267)"/>
</svg>
